<svg width="592" height="176" xmlns="http://www.w3.org/2000/svg" xmlns:xlink="http://www.w3.org/1999/xlink" xml:space="preserve" overflow="hidden"><g transform="translate(-85 -116)">
<path d="M8.01778 109.12 35.9822 109.12 35.9822 81.1556 8.01778 81.1556 8.01778 109.12Z" fill="#E11075" transform="matrix(1.00909 0 0 1 85 116)"/>
<path d="M75.2889 24.0533C97.9733 24.4444 111.662 39.6978 113.618 67.2711L121.049 66.0978 119.68 17.4044 9.38667 17.4044 8.01778 66.0978 15.4489 67.2711C17.4044 39.5022 30.8978 24.4444 53.7778 24.0533L53.7778 126.133C53.7778 144.711 50.6489 147.644 30.7022 147.84L30.7022 155.662 98.56 155.662 98.56 147.84C78.6133 147.644 75.4844 144.711 75.4844 126.133L75.4844 24.0533 75.2889 24.0533Z" fill="#E11075" transform="matrix(1.00909 0 0 1 85 116)"/>
<path d="M92.8889 109.12 120.853 109.12 120.853 81.1556 92.8889 81.1556 92.8889 109.12Z" fill="#E11075" transform="matrix(1.00909 0 0 1 85 116)"/>
<path d="M155.467 17.4044 160.16 17.4044 160.16 155.467 155.467 155.467Z" fill="#E11075" transform="matrix(1.00909 0 0 1 85 116)"/>
<path d="M194.382 17.4044 227.236 17.4044 227.236 26.0089 215.502 26.0089 215.502 63.1644 206.311 63.1644 206.311 26.0089 194.578 26.0089 194.578 17.4044Z" fill="#E11075" transform="matrix(1.00909 0 0 1 85 116)"/>
<path d="M241.707 41.4578 241.707 49.0844 222.933 49.0844 222.933 41.4578 241.707 41.4578Z" fill="#E11075" transform="matrix(1.00909 0 0 1 85 116)"/>
<path d="M293.92 17.4044 293.92 63.1644 284.729 63.1644 284.729 37.3511 284.338 37.3511 272.996 57.4933 270.062 57.4933 258.916 37.3511 258.524 37.3511 258.524 63.1644 249.333 63.1644 249.333 17.4044 257.938 17.4044 271.627 42.8267 272.018 42.8267 285.707 17.4044 293.92 17.4044Z" fill="#E11075" transform="matrix(1.00909 0 0 1 85 116)"/>
<path d="M299.004 40.2844C299.004 25.4222 305.849 16.2311 318.364 16.2311 330.88 16.2311 337.724 25.4222 337.724 40.2844 337.724 55.1467 330.88 64.3378 318.364 64.3378 305.849 64.3378 299.004 55.1467 299.004 40.2844ZM328.338 40.2844C328.338 30.3111 324.818 25.2267 318.56 25.2267 312.107 25.2267 308.782 30.3111 308.782 40.2844 308.782 50.2578 312.302 55.3422 318.56 55.3422 324.818 55.3422 328.338 50.2578 328.338 40.2844Z" fill="#E11075" transform="matrix(1.00909 0 0 1 85 116)"/>
<path d="M374.293 50.6489C374.293 57.6889 370.187 63.36 360.213 63.36L343.2 63.36 343.2 17.4044 360.604 17.4044C369.991 17.4044 373.902 22.88 373.902 29.5289 373.902 34.2222 371.751 37.9378 368.231 40.0889L368.231 40.2844C372.142 42.0444 374.293 45.76 374.293 50.6489ZM352.196 25.6178 352.196 36.1778 359.04 36.1778C362.169 36.1778 364.124 34.0267 364.124 30.8978 364.124 27.7689 362.169 25.6178 359.04 25.6178L352.196 25.6178ZM364.711 49.4756C364.711 46.1511 362.756 44 359.04 44L352.391 44 352.391 54.9511 359.04 54.9511C362.756 55.1467 364.711 52.9956 364.711 49.4756Z" fill="#E11075" transform="matrix(1.00909 0 0 1 85 116)"/>
<path d="M379.573 17.4044 388.764 17.4044 388.764 63.1644 379.573 63.1644 379.573 17.4044Z" fill="#E11075" transform="matrix(1.00909 0 0 1 85 116)"/>
<path d="M395.609 17.4044 404.8 17.4044 404.8 54.56 421.227 54.56 421.227 63.1644 395.609 63.1644 395.609 17.4044Z" fill="#E11075" transform="matrix(1.00909 0 0 1 85 116)"/>
<path d="M434.133 26.0089 434.133 35.5911 451.147 35.5911 451.147 44.1956 434.133 44.1956 434.133 54.7556 451.929 54.7556 451.929 63.36 424.942 63.36 424.942 17.4044 451.929 17.4044 451.929 26.0089 434.133 26.0089Z" fill="#E11075" transform="matrix(1.00909 0 0 1 85 116)"/>
<path d="M203.769 80.3733 203.769 90.7378 220.196 90.7378 220.196 99.3422 203.769 99.3422 203.769 117.724 194.578 117.724 194.578 71.7689 220.978 71.7689 220.978 80.3733 203.769 80.3733Z" fill="#E11075" transform="matrix(1.00909 0 0 1 85 116)"/>
<path d="M223.716 94.6489C223.716 79.7867 230.56 70.5956 243.076 70.5956 255.591 70.5956 262.436 79.7867 262.436 94.6489 262.436 109.511 255.591 118.702 243.076 118.702 230.56 118.702 223.716 109.511 223.716 94.6489ZM252.853 94.6489C252.853 84.6756 249.333 79.5911 243.076 79.5911 236.818 79.5911 233.298 84.6756 233.298 94.6489 233.298 104.622 236.818 109.707 243.076 109.707 249.333 109.707 252.853 104.622 252.853 94.6489Z" fill="#E11075" transform="matrix(1.00909 0 0 1 85 116)"/>
<path d="M290.009 117.529 281.404 100.907 276.907 100.907 276.907 117.529 267.716 117.529 267.716 71.7689 284.729 71.7689C293.724 71.7689 299.982 77.0489 299.982 86.24 299.982 93.28 296.267 97.9733 290.791 99.7333L300.569 117.333 290.009 117.333ZM276.907 92.3022 284.142 92.3022C287.662 92.3022 290.204 90.1511 290.204 86.4356 290.204 82.5244 287.662 80.5689 284.142 80.5689L276.907 80.5689 276.907 92.3022Z" fill="#E11075" transform="matrix(1.00909 0 0 1 85 116)"/>
<path d="M347.111 104.818C347.111 111.858 343.004 117.529 333.031 117.529L316.018 117.529 316.018 71.7689 333.422 71.7689C342.809 71.7689 346.72 77.2444 346.72 83.8933 346.72 88.5867 344.569 92.3022 341.049 94.4533L341.049 94.6489C344.96 96.4089 347.111 100.124 347.111 104.818ZM325.209 79.9822 325.209 90.5422 332.053 90.5422C335.182 90.5422 337.138 88.3911 337.138 85.2622 337.138 82.1333 335.182 79.9822 332.053 79.9822L325.209 79.9822ZM337.529 103.84C337.529 100.516 335.573 98.3644 331.858 98.3644L325.209 98.3644 325.209 109.511 331.858 109.511C335.573 109.511 337.529 107.36 337.529 103.84Z" fill="#E11075" transform="matrix(1.00909 0 0 1 85 116)"/>
<path d="M352 100.907 352 71.7689 361.191 71.7689 361.191 99.5378C361.191 106.578 363.342 109.707 369.013 109.707 374.684 109.707 376.836 106.773 376.836 99.5378L376.836 71.7689 386.027 71.7689 386.027 100.907C386.027 112.444 379.964 118.702 369.013 118.702 358.062 118.702 352 112.249 352 100.907Z" fill="#E11075" transform="matrix(1.00909 0 0 1 85 116)"/>
<path d="M390.329 104.622 399.52 104.622C400.302 108.533 402.844 109.902 406.364 109.902 410.276 109.902 412.231 107.751 412.231 104.818 412.231 101.884 410.276 100.32 406.756 99.3422L401.476 97.7778C394.24 95.8222 391.307 90.5422 391.307 84.8711 391.307 76.2667 397.76 70.5956 406.364 70.5956 415.556 70.5956 420.64 76.0711 421.618 84.48L412.622 84.48C412.036 80.96 410.08 79.3956 406.56 79.3956 403.431 79.3956 401.084 81.3511 401.084 84.48 401.084 87.6089 403.236 88.7822 405.778 89.3689L411.058 90.7378C417.902 92.4978 422.204 97.5822 422.204 104.231 422.204 113.422 415.36 118.702 406.756 118.702 396.782 118.702 391.111 113.618 390.329 104.622Z" fill="#E11075" transform="matrix(1.00909 0 0 1 85 116)"/>
<path d="M426.507 71.7689 435.698 71.7689 435.698 117.529 426.507 117.529 426.507 71.7689Z" fill="#E11075" transform="matrix(1.00909 0 0 1 85 116)"/>
<path d="M478.329 71.7689 478.329 117.529 468.942 117.529 452.516 88.9778 452.124 88.9778 452.124 117.529 442.933 117.529 442.933 71.7689 452.32 71.7689 468.747 100.516 469.138 100.516 469.138 71.7689 478.329 71.7689Z" fill="#E11075" transform="matrix(1.00909 0 0 1 85 116)"/>
<path d="M494.364 80.3733 494.364 89.9556 511.378 89.9556 511.378 98.56 494.364 98.56 494.364 108.924 512.16 108.924 512.16 117.529 485.173 117.529 485.173 71.7689 512.16 71.7689 512.16 80.3733 494.364 80.3733Z" fill="#E11075" transform="matrix(1.00909 0 0 1 85 116)"/>
<path d="M515.68 104.622 524.871 104.622C525.653 108.533 528.196 109.902 531.716 109.902 535.627 109.902 537.582 107.751 537.582 104.818 537.582 101.884 535.627 100.32 532.107 99.3422L526.827 97.7778C519.591 95.8222 516.658 90.5422 516.658 84.8711 516.658 76.2667 523.111 70.5956 531.716 70.5956 540.907 70.5956 545.991 76.0711 546.969 84.48L537.778 84.48C537.191 80.96 535.236 79.3956 531.716 79.3956 528.587 79.3956 526.24 81.3511 526.24 84.48 526.24 87.6089 528.391 88.7822 530.933 89.3689L536.213 90.7378C543.058 92.4978 547.36 97.5822 547.36 104.231 547.36 113.422 540.516 118.702 531.911 118.702 522.133 118.702 516.462 113.618 515.68 104.622Z" fill="#E11075" transform="matrix(1.00909 0 0 1 85 116)"/>
<path d="M549.511 104.622 558.702 104.622C559.484 108.533 562.027 109.902 565.547 109.902 569.458 109.902 571.413 107.751 571.413 104.818 571.413 101.884 569.458 100.32 565.938 99.3422L560.658 97.7778C553.422 95.8222 550.489 90.5422 550.489 84.8711 550.489 76.2667 556.942 70.5956 565.547 70.5956 574.738 70.5956 579.822 76.0711 580.8 84.48L571.804 84.48C571.218 80.96 569.262 79.3956 565.742 79.3956 562.613 79.3956 560.267 81.3511 560.267 84.48 560.267 87.6089 562.418 88.7822 564.96 89.3689L570.24 90.7378C577.084 92.4978 581.387 97.5822 581.387 104.231 581.387 113.422 574.542 118.702 565.938 118.702 555.964 118.702 550.293 113.618 549.511 104.622Z" fill="#E11075" transform="matrix(1.00909 0 0 1 85 116)"/>
<path d="M194.382 130.436 198.293 130.436 198.293 155.662 194.382 155.662 194.382 130.436Z" fill="#E11075" transform="matrix(1.00909 0 0 1 85 116)"/>
<path d="M221.564 130.436 221.564 155.662 217.458 155.662 207.093 138.062 206.898 138.062 206.898 155.662 202.987 155.662 202.987 130.436 207.093 130.436 217.458 148.231 217.653 148.231 217.653 130.436 221.564 130.436Z" fill="#E11075" transform="matrix(1.00909 0 0 1 85 116)"/>
<path d="M224.107 130.436 241.902 130.436 241.902 134.151 235.058 134.151 235.058 155.662 231.147 155.662 231.147 134.151 224.302 134.151 224.302 130.436Z" fill="#E11075" transform="matrix(1.00909 0 0 1 85 116)"/>
<path d="M248.16 134.151 248.16 140.8 258.133 140.8 258.133 144.516 248.16 144.516 248.16 151.751 258.524 151.751 258.524 155.467 244.249 155.467 244.249 130.436 258.524 130.436 258.524 134.151 248.16 134.151Z" fill="#E11075" transform="matrix(1.00909 0 0 1 85 116)"/>
<path d="M274.951 155.662 269.476 145.884 266.151 145.884 266.151 155.662 262.24 155.662 262.24 130.436 271.04 130.436C275.538 130.436 279.058 133.173 279.058 138.258 279.058 142.364 276.711 144.907 273.387 145.689L279.253 155.662 274.951 155.662ZM266.151 142.169 270.844 142.169C273.191 142.169 274.951 140.8 274.951 138.062 274.951 135.324 273.191 134.151 270.844 134.151L266.151 134.151 266.151 142.169Z" fill="#E11075" transform="matrix(1.00909 0 0 1 85 116)"/>
<path d="M301.156 130.436 301.156 155.662 297.049 155.662 286.684 138.062 286.489 138.062 286.489 155.662 282.578 155.662 282.578 130.436 286.684 130.436 297.049 148.231 297.244 148.231 297.244 130.436 301.156 130.436Z" fill="#E11075" transform="matrix(1.00909 0 0 1 85 116)"/>
<path d="M309.564 134.151 309.564 140.8 319.538 140.8 319.538 144.516 309.564 144.516 309.564 151.751 319.929 151.751 319.929 155.467 305.653 155.467 305.653 130.436 319.929 130.436 319.929 134.151 309.564 134.151Z" fill="#E11075" transform="matrix(1.00909 0 0 1 85 116)"/>
<path d="M321.493 130.436 339.289 130.436 339.289 134.151 332.444 134.151 332.444 155.662 328.533 155.662 328.533 134.151 321.689 134.151 321.689 130.436Z" fill="#E11075" transform="matrix(1.00909 0 0 1 85 116)"/>
<path d="M345.938 142.951C345.938 134.933 349.653 129.849 356.302 129.849 362.951 129.849 366.667 134.933 366.667 142.951 366.667 150.969 362.951 156.053 356.302 156.053 349.653 156.053 345.938 151.164 345.938 142.951ZM362.56 142.951C362.56 136.889 360.409 133.76 356.302 133.76 352.196 133.76 350.044 137.084 350.044 142.951 350.044 149.013 352.196 152.142 356.302 152.142 360.213 152.142 362.56 149.013 362.56 142.951Z" fill="#E11075" transform="matrix(1.00909 0 0 1 85 116)"/>
<path d="M374.098 134.151 374.098 141.191 383.68 141.191 383.68 144.907 374.098 144.907 374.098 155.467 370.187 155.467 370.187 130.436 384.071 130.436 384.071 134.151 374.098 134.151Z" fill="#E11075" transform="matrix(1.00909 0 0 1 85 116)"/>
<path d="M389.742 130.436 407.538 130.436 407.538 134.151 400.693 134.151 400.693 155.662 396.782 155.662 396.782 134.151 389.938 134.151 389.938 130.436Z" fill="#E11075" transform="matrix(1.00909 0 0 1 85 116)"/>
<path d="M428.267 130.436 428.267 155.662 424.356 155.662 424.356 144.711 413.991 144.711 413.991 155.662 410.08 155.662 410.08 130.436 413.991 130.436 413.991 140.8 424.356 140.8 424.356 130.24 428.267 130.24Z" fill="#E11075" transform="matrix(1.00909 0 0 1 85 116)"/>
<path d="M432.764 130.436 436.676 130.436 436.676 155.662 432.764 155.662 432.764 130.436Z" fill="#E11075" transform="matrix(1.00909 0 0 1 85 116)"/>
<path d="M459.947 130.436 459.947 155.662 455.84 155.662 445.476 138.062 445.28 138.062 445.28 155.662 441.369 155.662 441.369 130.436 445.476 130.436 455.84 148.231 456.036 148.231 456.036 130.436 459.947 130.436Z" fill="#E11075" transform="matrix(1.00909 0 0 1 85 116)"/>
<path d="M483.804 142.756 483.804 143.929C483.804 152.142 480.089 156.249 474.027 156.249 466.987 156.249 463.271 151.164 463.271 143.147 463.271 135.129 466.987 130.044 473.831 130.044 479.111 130.044 482.631 133.173 483.413 137.671L479.111 137.671C478.524 135.52 476.569 133.956 473.831 133.956 469.724 133.956 467.378 137.28 467.378 143.147 467.378 149.013 469.724 152.338 473.831 152.338 477.156 152.338 479.307 150.578 479.502 146.276L474.222 146.276 474.222 142.756 483.804 142.756Z" fill="#E11075" transform="matrix(1.00909 0 0 1 85 116)"/>
<path d="M485.76 148.622 489.867 148.622C490.258 151.164 492.018 152.338 494.364 152.338 496.907 152.338 498.471 150.969 498.471 148.818 498.471 146.862 497.298 145.884 494.951 145.102L492.018 144.32C488.302 143.147 486.542 140.604 486.542 137.476 486.542 132.782 490.062 130.044 494.364 130.044 499.253 130.044 501.991 132.978 502.382 137.28L498.471 137.28C498.08 134.933 496.711 133.76 494.364 133.76 492.409 133.76 490.649 134.933 490.649 137.28 490.649 139.236 491.822 140.018 493.778 140.8L496.711 141.582C500.231 142.56 502.578 145.102 502.578 148.818 502.578 153.511 499.058 156.444 494.56 156.444 489.28 156.053 486.151 153.511 485.76 148.622Z" fill="#E11075" transform="matrix(1.00909 0 0 1 85 116)"/></g></svg>